PathFileType	4	(X/Y/Z)	H:\MAC\Cortex8\Teaching\Biomec1_N_2\Trimmed_walk2.trc
DataRate	CameraRate	NumFrames	NumMarkers	Units	OrigDataRate	OrigDataStartFrame	OrigNumFrames
150.00	150.00	       6	28	mm	150.00	24	       184
Frame#	Time	R.ASIS			L.ASIS			R.PSIS			L.PSIS			L.Iliac.Crest			R.Iliac.Crest			R.GTR			R.Knee			R.HF			R.TT			R.Ankle			R.Heel			R.MT1			R.MT5			L.GTR			L.Knee			L.HF			L.TT			L.Ankle			L.Heel			L.MT1			L.MT5			R.Knee.Medial			R.Ankle.Medial			R.MT2			L.Knee.Medial			L.Ankle.Medial			L.MT2			V_Mid_ASIS			V_Mid_PSIS			V_Pelvis_Origin			V_R.Hip_JC			V_R.Knee_JC_Static			V_R.TT			V_R.Ankle_JC_Static			V_L.Hip_JC			V_Mid_Hip			V_R.MT2_Static			V_R.Knee.Medial			V_R.Ankle.Medial			V_R.TT			V_L.Knee_JC_Static			V_L.TT			V_L.Ankle_JC_Static			V_L.MT2_Static			V_R.Knee_JC			V_R.Ankle_JC			V_L.Knee_JC			V_L.Ankle_JC			V_R.TT_KJC_Static			V_L.TT_KJC_Static			V_R.TT_KJC			V_L.TT_KJC			V_R.MT2			V_L.MT2			
		X1	Y1	Z1	X2	Y2	Z2	X3	Y3	Z3	X4	Y4	Z4	X5	Y5	Z5	X6	Y6	Z6	X7	Y7	Z7	X8	Y8	Z8	X9	Y9	Z9	X10	Y10	Z10	X11	Y11	Z11	X12	Y12	Z12	X13	Y13	Z13	X14	Y14	Z14	X15	Y15	Z15	X16	Y16	Z16	X17	Y17	Z17	X18	Y18	Z18	X19	Y19	Z19	X20	Y20	Z20	X21	Y21	Z21	X22	Y22	Z22	X23	Y23	Z23	X24	Y24	Z24	X25	Y25	Z25	X26	Y26	Z26	X27	Y27	Z27	X28	Y28	Z28	

24.0	0.153	-334.45776	998.97839	-668.31189	-585.90173	1001.39496	-686.30939	-417.70172	996.95874	-468.10428	-495.83371	996.65033	-467.44049	-631.15759	1058.49194	-592.00897	-297.69617	1041.72046	-588.84192	-270.63721	906.72418	-604.15399	-263.0741	520.79144	-681.20514	-258.73822	466.83331	-666.73657	-304.5072	422.09192	-715.68951	-320.9711	267.2753	-377.99088	-380.20483	296.41495	-322.74249	-358.07819	122.09135	-459.92188	-276.55783	142.79648	-426.56625	-661.79517	901.96893	-623.06592	-609.245	503.84048	-647.508	-604.30389	439.99429	-658.64081	-539.53021	435.29855	-710.95142	-550.55542	82.17344	-611.60425	-492.32462	52.54643	-545.32184	-482.58701	53.70394	-768.90265	-571.16266	48.88744	-746.92468	-387.42831	493.61597	-721.52979	-401.40045	244.7455	-420.36301	-321.42358	133.30975	-457.33566	-468.59161	495.84363	-636.5022	-460.6499	102.78988	-644.61713	-519.28375	60.77239	-768.6955
25.0	0.16	-335.95944	1000.64862	-675.12421	-587.83594	1002.2782	-692.56232	-417.71707	998.05273	-474.52634	-495.81934	997.40021	-473.6723	-631.88721	1059.15967	-597.77869	-298.67575	1043.54248	-595.80597	-270.76892	909.03802	-612.16602	-263.77896	523.28381	-694.08044	-259.3931	468.87595	-680.46057	-305.22238	425.1232	-730.09698	-322.18207	263.28299	-395.83206	-381.04584	290.78714	-339.2352	-359.66479	121.44876	-482.84131	-278.09225	140.2261	-449.05377	-662.65271	901.97864	-626.98486	-610.31635	503.96628	-647.73065	-605.39948	439.90378	-658.32727	-541.49463	434.96899	-711.51208	-550.56647	82.21776	-611.57178	-492.28778	52.65127	-545.34937	-482.72342	53.81037	-768.93085	-571.25427	48.78881	-746.95093	-387.89697	497.19485	-734.37836	-402.77634	242.48557	-438.7175	-323.28207	132.4734	-479.75009	-469.50241	495.78607	-638.57294	-460.80722	102.92521	-644.74164	-519.43677	60.778	-768.71082
26.0	0.167	-337.39642	1002.05853	-682.01215	-589.15302	1002.93689	-698.30676	-417.67932	998.99994	-480.88828	-495.70142	998.10883	-479.91	-632.62329	1059.76221	-603.52954	-299.63953	1045.19592	-602.72339	-271.03159	911.36035	-620.31335	-264.49423	525.67096	-706.76245	-260.21661	470.65097	-694.02887	-306.07742	428.08926	-744.71997	-323.31052	258.85059	-413.86459	-381.86673	284.49701	-356.14609	-361.44659	120.4008	-505.83487	-279.69492	137.80148	-471.63562	-663.45856	902.0174	-630.86389	-611.3844	504.08936	-647.92767	-606.03137	440.01642	-658.71783	-543.61932	434.65381	-712.03821	-550.5813	82.2514	-611.53223	-492.34464	52.9589	-544.9173	-482.87567	53.91817	-768.95941	-571.3797	48.67952	-746.98706	-388.54095	500.74896	-746.5968	-404.0864	239.73885	-457.31946	-325.08252	131.41626	-502.43338	-470.38531	495.82266	-640.43756	-461.1813	102.92594	-644.77521	-519.60822	60.79083	-768.73474
27.0	0.173	-338.76718	1003.38367	-688.75507	-590.39996	1003.51678	-704.03473	-417.3782	999.58667	-487.46698	-495.59549	998.68762	-486.07672	-633.33228	1060.32263	-609.35046	-300.57944	1046.69202	-609.58362	-270.98132	913.58923	-628.40051	-265.17902	527.854	-719.24377	-261.00925	472.28815	-707.44684	-307.44327	430.72824	-758.93311	-324.50546	253.98961	-432.33142	-382.83469	277.68402	-373.33997	-363.00415	119.07767	-528.94043	-281.22684	135.40135	-494.40582	-665.00049	902.26245	-634.68585	-612.39319	504.21661	-648.14301	-607.01782	439.96213	-658.59863	-545.7229	434.31851	-712.61884	-550.59747	82.28878	-611.50641	-492.30585	53.01202	-544.95642	-483.15982	54.24616	-768.89178	-571.49854	48.58005	-747.03223	-389.18686	504.40741	-758.57898	-405.36279	236.50856	-476.12073	-326.58456	129.99739	-525.35657	-471.34018	495.88577	-642.38159	-461.2374	103.14659	-644.96558	-519.78491	60.80489	-768.77972
28.0	0.18	-340.07654	1004.56927	-695.49146	-591.61462	1004.04633	-709.76794	-417.35226	999.99713	-493.8013	-495.41968	999.09991	-492.2196	-633.98285	1060.86816	-615.23828	-301.41342	1047.87622	-616.59943	-270.87949	915.67517	-636.35706	-265.90219	529.98022	-731.38849	-261.91727	473.77994	-720.61792	-308.50934	433.616	-773.13184	-325.33627	248.63609	-451.09875	-383.82629	270.37161	-391.01685	-364.29803	117.45565	-552.27563	-282.15125	132.21307	-518.3623	-665.66437	902.315	-638.77191	-613.3819	504.33322	-648.40442	-607.94403	439.91077	-658.64484	-547.75818	434.00769	-713.20404	-550.60559	82.33427	-611.48895	-492.13654	52.93179	-545.12848	-483.28723	54.33445	-768.93103	-571.62042	48.47403	-747.07031	-389.86209	507.89923	-770.08966	-406.38287	233.43869	-495.95901	-327.90396	128.32764	-548.39246	-472.09317	495.93985	-644.67242	-461.40231	103.27358	-645.27972	-519.974	60.80852	-768.8595
29.0	0.187	-341.33624	1005.62775	-702.30463	-592.76276	1004.41357	-715.43628	-417.34848	1000.27087	-500.1626	-495.29059	999.38635	-498.43057	-634.60193	1061.37378	-621.11316	-302.1864	1048.90259	-623.26843	-270.83612	917.59076	-644.40015	-266.58383	531.76074	-743.49835	-262.5882	475.2052	-733.50922	-309.58694	436.37344	-787.20288	-326.56107	243.05389	-469.97531	-384.84467	262.57483	-409.02808	-365.54602	115.77287	-575.38849	-283.3414	129.58614	-540.54242	-666.32886	902.4635	-643.03949	-614.28253	504.43317	-648.75244	-608.80615	439.85443	-658.81305	-549.54218	433.74527	-713.82324	-550.59686	82.37444	-611.47345	-491.72354	52.36787	-545.1637	-483.41406	54.4009	-768.97766	-571.69458	48.38899	-747.11212	-390.71219	511.22342	-781.4068	-407.35577	229.12396	-515.28009	-328.94186	126.52232	-571.5993	-472.99438	495.97473	-646.79034	-461.58893	103.42291	-645.43958	-519.9892	60.89408	-768.88013
